<svg width="24" height="24" viewBox="0 0 24 24" fill="none" xmlns="http://www.w3.org/2000/svg">
<path d="M11.6705 23.3409C18.116 23.3409 23.3409 18.116 23.3409 11.6705C23.3409 5.22496 18.116 0 11.6705 0C5.22496 0 0 5.22496 0 11.6705C0 18.116 5.22496 23.3409 11.6705 23.3409Z" fill="#D6001C"/>
<path d="M6.62095 6.42811V10.3783C7.22551 9.66125 7.95021 9.3003 8.79066 9.3003C9.22353 9.3003 9.61116 9.38255 9.95892 9.54561C10.3076 9.70771 10.5683 9.91576 10.7444 10.1683C10.9214 10.4233 11.0411 10.7025 11.1058 11.0103C11.17 11.3165 11.2021 11.7931 11.2021 12.4396V16.6632H9.32372V12.8591C9.32372 12.1043 9.28967 11.6262 9.21818 11.423C9.15119 11.2239 9.0183 11.0533 8.84124 10.9391C8.66031 10.8177 8.43512 10.7577 8.16324 10.7577C7.85196 10.7577 7.57278 10.8351 7.33008 10.989C7.08203 11.1438 6.90402 11.3751 6.79118 11.6843C6.6764 11.9939 6.61901 12.4512 6.62095 13.0565L6.61901 16.6632H4.74307V6.42811H6.62144M14.0172 6.42811V10.3783C14.6222 9.66125 15.3465 9.3003 16.1864 9.3003C16.6178 9.3003 17.0084 9.38255 17.3566 9.54561C17.7039 9.70771 17.9646 9.91576 18.1397 10.1683C18.3164 10.4216 18.4393 10.7081 18.5011 11.0103C18.5657 11.3165 18.5978 11.7931 18.5978 12.4396V16.6632H16.7214V12.8591C16.7214 12.1043 16.6859 11.6262 16.6144 11.423C16.5474 11.2236 16.4141 11.053 16.2365 10.9391C16.0575 10.8177 15.8304 10.7577 15.5585 10.7577C15.2477 10.7577 14.9685 10.8351 14.7254 10.989C14.4807 11.1438 14.3017 11.3751 14.1874 11.6843C14.0746 11.9939 14.0172 12.4512 14.0172 13.0565V16.6632H12.1413V6.42811H14.0172Z" fill="white"/>
</svg>
