<svg width="67" height="33" viewBox="0 0 67 33" fill="none" xmlns="http://www.w3.org/2000/svg">
<path d="M62.3036 4.01212C62.0768 4.01212 61.8817 4.04829 61.4996 4.10858C60.632 4.29748 60.3693 4.81193 60.3096 5.92123C60.2459 6.93406 60.2459 7.82632 60.2459 12.786V16.1862C60.2459 19.6186 59.8599 23.4368 57.2888 25.6916C54.9724 27.7253 52.5645 28.0428 50.666 28.0428C49.5755 28.0428 46.3317 27.9182 44.0472 25.788C42.4751 24.2929 41.2492 22.0663 41.2492 17.4281V12.79C41.2492 7.83034 41.2492 6.93808 41.1855 5.92525C41.1179 4.84409 40.8631 4.33365 39.8044 4.1126C39.5497 4.05231 39.0005 4.01614 38.7139 4.01614C38.5866 4.01614 38.4592 3.95585 38.4592 3.82723C38.4592 3.63431 38.6184 3.57001 38.9726 3.57001C40.4174 3.57001 42.3795 3.66647 42.6661 3.66647C42.9527 3.66647 44.887 3.57001 45.8501 3.57001C46.2043 3.57001 46.3596 3.63431 46.3596 3.82723C46.3596 3.95585 46.2362 4.01614 46.1049 4.01614C45.882 4.01614 45.6869 4.05231 45.3009 4.1126C44.4332 4.23719 44.1785 4.81595 44.1108 5.92525C44.0472 6.93808 44.0472 7.83034 44.0472 12.79V17.2392C44.0472 21.8171 45.074 23.7865 46.4551 25.0887C48.0312 26.5517 49.4799 26.837 51.3068 26.837C53.2689 26.837 55.1953 25.9126 56.3535 24.5461C57.834 22.7375 58.2161 20.0326 58.2161 16.761V12.79C58.2161 7.83034 58.2161 6.93808 58.1524 5.92525C58.0888 4.84409 57.83 4.33365 56.7714 4.1126C56.5127 4.05231 55.9674 4.01614 55.6729 4.01614C55.5455 4.01614 55.4182 3.95585 55.4182 3.82723C55.4182 3.63431 55.5774 3.57001 55.9316 3.57001C57.3763 3.57001 59.1435 3.66647 59.3345 3.66647C59.5574 3.66647 61.0698 3.57001 62.033 3.57001C62.3872 3.57001 62.5464 3.63431 62.5464 3.82723C62.5464 3.95585 62.419 4.01614 62.2917 4.01614M34.5508 32.1062H67.0001V0.000976562H34.5508V32.1022V32.1062Z" fill="#939598"/>
<path d="M25.4563 26.9496C25.2295 27.6891 25.134 27.8177 23.4146 27.8177C21.0783 27.8177 17.6117 27.7534 16.2545 27.7213C14.8893 27.6569 13.8824 27.6248 12.9471 27.6248C12.8157 27.6248 12.2625 27.6569 11.6177 27.6569C10.969 27.6891 10.2566 27.7213 9.76704 27.7213C9.41281 27.7213 9.24963 27.6569 9.24963 27.464C9.24963 27.3716 9.3133 27.2751 9.50832 27.2751C9.79887 27.2751 10.1889 27.2108 10.4795 27.1465C11.1282 27.0179 11.2914 26.3105 11.4227 25.3821C11.5859 24.0357 11.5859 21.5036 11.5859 18.4209V12.7779C11.5859 7.77407 11.5859 6.87779 11.5222 5.84888C11.4546 4.75968 11.1959 4.24523 10.1252 4.02016C9.86652 3.95585 9.31729 3.92369 9.02277 3.92369C8.89541 3.92369 8.76406 3.85939 8.76406 3.73078C8.76406 3.53785 8.92724 3.47355 9.28544 3.47355C10.7421 3.47355 12.7839 3.57001 12.9511 3.57001C13.1182 3.57001 15.4744 3.47355 16.4495 3.47355C16.8037 3.47355 16.9669 3.53785 16.9669 3.73078C16.9669 3.85939 16.8356 3.92369 16.7042 3.92369C16.4814 3.92369 16.0237 3.95183 15.6376 4.02016C14.6983 4.18092 14.4396 4.72753 14.3719 5.84888C14.3043 6.87377 14.3043 7.77407 14.3043 12.7779V18.4852C14.3043 23.1997 14.4396 25.2495 15.0207 25.8282C15.5381 26.3387 16.3779 26.5637 18.9092 26.5637C19.2714 26.5637 21.3927 26.5637 21.7191 26.5517C22.9728 26.5115 23.9957 26.3387 24.6166 25.6031C25.0385 25.0927 25.3608 24.2929 25.4563 23.682C25.4882 23.4248 25.5519 23.264 25.7469 23.264C25.9101 23.264 25.9459 23.3926 25.9459 23.7463C25.9459 24.1 25.7151 26.0211 25.4563 26.9496ZM0 32.1062H32.4533V0.000976562H0V32.1022V32.1062Z" fill="#9E0425"/>
</svg>
