<svg width="33" height="26" viewBox="0 0 33 26" fill="none" xmlns="http://www.w3.org/2000/svg">
<path d="M20.6674 6.63707C17.5509 6.63707 15.1102 5.35 15.1853 3.76009C15.2604 2.17019 17.7762 0.883118 20.8927 0.883118C24.0093 0.883118 26.45 2.17019 26.3749 3.76009C26.3373 5.35 23.784 6.63707 20.6674 6.63707ZM24.197 12.126C22.6575 11.1797 20.3671 11.1039 17.2505 14.8894C15.7861 16.7065 14.3592 19.2427 12.632 21.3248C10.9047 23.4068 8.91466 25.0345 6.28624 25.0345C2.94439 25.0345 1.36732 22.4604 0.616346 19.2806C0.240857 17.6907 0.0906482 15.9115 0.0155504 14.2459C-0.0219985 12.5803 0.0155642 10.9904 0.053113 9.74117C0.0906619 9.05978 0.240862 7.99984 0.503704 7.31845C1.85546 3.72223 5.76053 1.71593 9.21503 2.81372C11.881 3.68438 13.6458 6.18281 13.5331 8.90836C13.4956 10.309 13.383 11.7475 13.3079 12.9588C13.2703 14.1702 13.2328 15.1166 13.3454 15.533C13.4956 16.1008 14.0588 16.1008 14.3968 15.798C14.547 15.6465 14.9976 15.1544 15.4857 14.5866C15.9739 14.0188 16.5746 13.3374 17.0628 12.8074C18.039 11.7475 20.292 9.58974 24.3848 9.58974C28.8906 9.58974 32.3827 13.0345 32.2325 17.3121C32.0823 21.5898 29.3037 25.0345 23.8215 25.0345C19.2406 25.0345 16.7248 22.1197 18.0015 18.4478C19.1279 15.0787 23.7465 14.1323 25.6615 14.738C25.7741 14.738 25.7365 13.0724 24.197 12.126Z" fill="#CE0037"/>
</svg>
