<svg width="22" height="22" viewBox="0 0 22 22" fill="none" xmlns="http://www.w3.org/2000/svg">
<path d="M12.1052 18.3842L12.1052 18.3842C12.0293 18.4573 11.9398 18.5146 11.8418 18.553C11.7437 18.5914 11.6391 18.6101 11.5338 18.6081C11.3211 18.604 11.1188 18.5156 10.9714 18.3623C10.8239 18.2091 10.7434 18.0035 10.7475 17.7909C10.7516 17.5782 10.84 17.3759 10.9933 17.2285L10.9933 17.2285L16.6352 11.8014H3.4565C3.24383 11.8014 3.03987 11.7169 2.88949 11.5665C2.73911 11.4161 2.65462 11.2121 2.65462 10.9995C2.65462 10.7868 2.73911 10.5828 2.88949 10.4325C3.03987 10.2821 3.24383 10.1976 3.4565 10.1976L16.6337 10.1976L10.9926 4.77197L10.9926 4.77194C10.9167 4.69893 10.8559 4.61169 10.8137 4.51519C10.7716 4.4187 10.7488 4.31485 10.7468 4.20956C10.7448 4.10427 10.7635 3.99961 10.8019 3.90156L11.0347 3.99275L10.8019 3.90156C10.8403 3.80351 10.8976 3.71398 10.9707 3.63809C11.0437 3.56221 11.1309 3.50144 11.2274 3.45927C11.3239 3.4171 11.4277 3.39434 11.533 3.39231C11.6383 3.39028 11.743 3.409 11.841 3.44741C11.9391 3.48582 12.0286 3.54317 12.1045 3.61618L19.042 10.2895L19.042 10.2895C19.1376 10.3815 19.2136 10.4918 19.2655 10.6139C19.3175 10.7359 19.3442 10.8672 19.3442 10.9998C19.3442 11.1325 19.3175 11.2638 19.2655 11.3858C19.2136 11.5078 19.1376 11.6182 19.042 11.7101L19.042 11.7102L12.1052 18.3842Z" fill="#CE0037" stroke="#CE0037" stroke-width="0.5"/>
</svg>
