<svg width="18" height="18" viewBox="0 0 18 18" fill="none" xmlns="http://www.w3.org/2000/svg">
<path fill-rule="evenodd" clip-rule="evenodd" d="M9.32865 15.9162C9.21986 15.9511 9.10089 15.9427 8.99983 15.894C8.88919 15.8407 8.81607 15.7476 8.7898 15.6463L8.43302 14.271C8.30825 13.79 8.12659 13.326 7.89261 12.888C7.52937 12.208 6.97974 11.685 6.46985 11.2456L5.3908 10.3158C5.22356 10.1717 5.13555 9.95563 5.15461 9.73516L5.76374 2.69065C5.79451 2.33477 6.09183 2.0625 6.44726 2.0625H9.93373C12.286 2.0625 14.2678 3.6992 14.6479 5.89714L15.1771 8.95696C15.2499 9.37807 14.9261 9.76185 14.5011 9.76185H10.6153C9.88242 9.76185 9.32579 10.4193 9.44411 11.1415L9.94111 14.1749C10.0092 14.5904 9.98975 15.0156 9.88403 15.4231C9.83038 15.6299 9.66719 15.8074 9.43738 15.8813L9.32865 15.9162L9.5007 16.4517L9.32865 15.9162ZM8.51147 16.9074C8.87341 17.0819 9.29044 17.1101 9.67274 16.9873L9.78146 16.9524L9.60942 16.4168L9.78147 16.9524C10.3642 16.7651 10.8189 16.2996 10.973 15.7056C11.118 15.1464 11.1447 14.5631 11.0513 13.993L10.5543 10.9596C10.5479 10.9207 10.5779 10.8869 10.6153 10.8869H14.5011C15.6256 10.8869 16.4771 9.87262 16.2856 8.76525L15.7565 5.70543C15.2781 2.93922 12.8034 0.937502 9.93373 0.937502H6.44726C5.50702 0.937502 4.72389 1.65732 4.64292 2.59374L4.0338 9.63824C3.98362 10.2185 4.21516 10.7878 4.65641 11.168L5.73547 12.0978C6.22688 12.5213 6.64053 12.9317 6.90031 13.4181C7.09274 13.7783 7.24179 14.1592 7.34406 14.5534L7.70084 15.9288C7.81277 16.3603 8.11248 16.7152 8.51147 16.9074ZM2.22575 10.8863C2.5267 10.8993 2.78446 10.6729 2.81041 10.3728L3.53911 1.94542C3.58592 1.40407 3.15951 0.937502 2.61503 0.937502C2.10217 0.937502 1.6875 1.35356 1.6875 1.86545V10.3244C1.6875 10.6256 1.9248 10.8733 2.22575 10.8863Z" fill="white"/>
</svg>
