<svg width="22" height="26" viewBox="0 0 22 26" fill="none" xmlns="http://www.w3.org/2000/svg">
<path d="M21.7505 16.7884C21.7505 22.572 18.1914 25.1099 15.4412 25.9657C14.8547 26.1482 14.4693 25.4645 14.8201 24.9604C16.0169 23.2404 17.4004 20.6163 17.4004 18.1478C17.4004 15.4962 15.1654 12.3656 13.4202 10.4347C13.0212 9.99325 12.3253 10.2853 12.3035 10.88C12.2314 12.85 11.9205 15.4858 10.58 17.5515C10.3642 17.884 9.9062 17.9116 9.66035 17.6007C9.2415 17.0709 8.82265 16.4166 8.4038 15.8996C8.17818 15.6212 7.77042 15.6173 7.51018 15.8637C6.49558 16.8244 5.07511 18.3226 5.07511 20.1869C5.07511 21.451 5.56486 22.7762 6.11742 23.8425C6.42139 24.4291 5.88088 25.1352 5.29587 24.8282C2.87251 23.5564 0 20.9803 0 16.7884C0 12.5111 5.85943 6.58582 8.09669 0.987918C8.44972 0.104588 9.53771 -0.310486 10.2944 0.265954C14.8772 3.75699 21.7505 10.5054 21.7505 16.7884Z" fill="#1D1819"/>
</svg>
