<svg width="257" height="60" viewBox="0 0 257 60" fill="none" xmlns="http://www.w3.org/2000/svg">
<path d="M48.3787 0H47.8154V60H48.3787V0Z" fill="#CE0037"/>
<path d="M75.9394 33.4258C74.5876 33.6908 72.973 33.8801 71.5837 33.8801C66.9276 33.8801 63.8486 31.7602 63.8486 26.9526V19.9873H68.1668V26.4983C68.1668 28.9589 69.4434 30.0567 71.9968 30.0567C73.3861 30.0567 74.7003 29.9053 75.9018 29.6024V19.9873H80.2199V39.9747H75.9018V33.4258H75.9394Z" fill="#CE0037"/>
<path d="M161.138 40.0128V26.65L151.15 40.0128H147.357V20.0254H151.676V32.9339L161.326 20.0254H165.456V40.0128H161.138Z" fill="#CE0037"/>
<path d="M206.121 30.0568V30.019C206.121 26.4984 203.493 23.5458 199.775 23.5458C196.058 23.5458 193.467 26.4227 193.467 29.9432V29.9811C193.467 33.5016 196.096 36.4543 199.813 36.4543C203.568 36.4543 206.121 33.5773 206.121 30.0568ZM188.961 30.0568V30.019C188.961 24.3786 193.542 19.6846 199.813 19.6846C206.084 19.6846 210.627 24.265 210.627 29.9432V29.9811C210.627 35.6593 206.046 40.3155 199.775 40.3155C193.505 40.3533 188.961 35.735 188.961 30.0568Z" fill="#CE0037"/>
<path d="M252.494 30.0568V30.019C252.494 26.4984 249.866 23.5458 246.149 23.5458C242.431 23.5458 239.84 26.4227 239.84 29.9432V29.9811C239.84 33.5016 242.469 36.4543 246.186 36.4543C249.903 36.4543 252.494 33.5773 252.494 30.0568ZM235.334 30.0568V30.019C235.334 24.3786 239.915 19.6846 246.186 19.6846C252.457 19.6846 257 24.265 257 29.9432V29.9811C257 35.6593 252.419 40.3155 246.149 40.3155C239.84 40.3533 235.334 35.735 235.334 30.0568Z" fill="#CE0037"/>
<path d="M89.4193 36.2273V28.0885C89.4568 30.1326 91.109 31.7983 93.1742 31.7983H99.3322V28.0506H89.4569V23.773H100.684V20.0254H85.1763V40.0128H100.684V36.2651H89.4193V36.2273Z" fill="#CE0037"/>
<path d="M181.677 29.754C183.855 28.9212 185.207 27.6719 185.207 25.0978V25.06C185.207 21.8044 182.391 19.6846 177.584 19.6846C173.942 19.6846 171.426 21.0095 169.173 22.9401L171.802 25.7792C173.492 24.4164 175.369 23.4322 177.547 23.4322C179.612 23.4322 180.889 24.265 180.889 25.7035V25.7414C180.889 27.1798 179.65 28.2019 177.509 28.2019H172.365C172.365 30.1325 173.942 31.7224 175.857 31.7224H177.397C179.912 31.6846 181.452 32.5552 181.452 34.0694V34.1073C181.452 35.7729 179.725 36.6057 177.434 36.6057C175.031 36.6057 173.154 35.6593 171.389 34.2965L168.835 37.3249C170.863 39.0663 173.642 40.3912 177.322 40.3912C182.729 40.429 185.845 37.8549 185.845 34.4858V34.448C185.77 31.6089 184.08 30.3218 181.677 29.754Z" fill="#CE0037"/>
<path d="M227.937 34.0317C227.937 35.5837 226.661 36.303 224.595 36.303H219.113V28.2399C219.151 30.1326 220.69 31.6847 222.605 31.6847H224.408C226.811 31.6847 227.9 32.5175 227.9 33.956V34.0317H227.937ZM223.732 23.7352C225.684 23.7352 226.811 24.5301 226.811 25.8929V25.9308C226.811 27.4828 225.534 28.202 223.469 28.202H219.151V23.7352H223.732ZM228.35 29.5648C229.815 28.7699 231.091 27.5207 231.091 25.2115V25.1737C231.091 23.8109 230.641 22.7131 229.702 21.7667C228.538 20.6311 226.661 20.0254 224.333 20.0254H214.945V40.0128H224.595C229.214 40.0128 232.218 38.1579 232.218 34.5238V34.486C232.255 31.7604 230.716 30.4355 228.35 29.5648Z" fill="#CE0037"/>
<path d="M114.915 30.1705H109.358V23.8487H114.877H114.915C116.642 23.8487 118.069 25.2494 118.069 27.0285C118.031 28.732 116.642 30.1705 114.915 30.1705ZM114.877 20.0254H105.04V40.0128H109.32V33.9181H114.84C118.632 33.9181 121.749 30.814 121.749 26.9528C121.786 23.1295 118.707 20.0254 114.877 20.0254Z" fill="#CE0037"/>
<path d="M125.279 20.0254H129.597V29.0348L138.121 20.0254H143.415L135.042 28.5427L143.79 40.0128H138.609L132.113 31.4197L129.597 33.956V40.0128H125.279V20.0254Z" fill="#CE0037"/>
<path d="M63.7734 49.2492C63.7734 47.735 64.8999 46.5615 66.5521 46.5615C67.5659 46.5615 68.1667 46.9022 68.6548 47.3565L67.9414 48.1514C67.5283 47.7729 67.1153 47.5457 66.5521 47.5457C65.6133 47.5457 64.975 48.3028 64.975 49.2114C64.975 50.1199 65.6133 50.877 66.5521 50.877C67.1904 50.877 67.5659 50.6498 67.9789 50.2713L68.6923 50.9905C68.1291 51.5584 67.5283 51.8991 66.5145 51.8991C64.9374 51.8991 63.7734 50.7256 63.7734 49.2492Z" fill="#CE0037"/>
<path d="M73.4614 47.6972L72.5226 47.9243L72.2974 47.0158L73.7993 46.5615H74.5503V51.8233H73.4614V47.6972Z" fill="#CE0037"/>
<path d="M79.0562 48.3028C79.0562 47.8107 78.6807 47.47 78.0799 47.47C77.4791 47.47 77.1412 47.8107 77.1412 48.3028C77.1412 48.795 77.5167 49.0978 78.1174 49.0978C78.7182 49.1356 79.0562 48.7571 79.0562 48.3028ZM79.0562 49.6278C78.7933 49.8927 78.4178 50.0442 77.9297 50.0442C76.7657 50.0442 76.0522 49.4006 76.0522 48.3786C76.0522 47.3186 76.8783 46.5615 78.0799 46.5615C78.7933 46.5615 79.2064 46.7508 79.6194 47.1293C79.9949 47.5079 80.2578 48.0757 80.2578 49.0978C80.2578 50.8013 79.4316 51.9369 77.9297 51.9369C77.1412 51.9369 76.653 51.6719 76.2025 51.3312L76.8032 50.4984C77.1787 50.8013 77.5166 50.9527 77.9672 50.9527C78.7933 50.9148 79.0186 50.1199 79.0562 49.6278Z" fill="#CE0037"/>
<path d="M83.9747 47.5834H81.4214V46.5991H85.2514V47.4319L82.8482 51.8231H81.5716L83.9747 47.5834Z" fill="#CE0037"/>
<path d="M88.3679 49.817V48.1136L86.866 49.817H88.3679ZM88.3679 50.6877H85.7395L85.5518 49.8927L88.4805 46.5615H89.4193V49.7792H90.1327V50.6877H89.4193V51.8233H88.3304V50.6877H88.3679Z" fill="#CE0037"/>
<path d="M20.6674 22.6372C17.5509 22.6372 15.1102 21.3502 15.1853 19.7603C15.2604 18.1704 17.7762 16.8833 20.8927 16.8833C24.0093 16.8833 26.45 18.1704 26.3749 19.7603C26.3373 21.3502 23.784 22.6372 20.6674 22.6372ZM24.197 28.1262C22.6575 27.1798 20.3671 27.1041 17.2505 30.8896C15.7861 32.7066 14.3592 35.2429 12.632 37.3249C10.9047 39.407 8.91466 41.0347 6.28624 41.0347C2.94439 41.0347 1.36732 38.4606 0.616346 35.2808C0.240857 33.6909 0.0906482 31.9117 0.0155504 30.2461C-0.0219985 28.5805 0.0155642 26.9906 0.053113 25.7414C0.0906619 25.06 0.240862 24 0.503704 23.3186C1.85546 19.7224 5.76053 17.7161 9.21503 18.8139C11.881 19.6846 13.6458 22.183 13.5331 24.9085C13.4956 26.3092 13.383 27.7477 13.3079 28.959C13.2703 30.1704 13.2328 31.1167 13.3454 31.5331C13.4956 32.101 14.0588 32.101 14.3968 31.7981C14.547 31.6467 14.9976 31.1546 15.4857 30.5868C15.9739 30.019 16.5746 29.3376 17.0627 28.8076C18.039 27.7477 20.292 25.5899 24.3848 25.5899C28.8906 25.5899 32.3827 29.0347 32.2325 33.3123C32.0823 37.5899 29.3037 41.0347 23.8215 41.0347C19.2406 41.0347 16.7248 38.1199 18.0015 34.448C19.1279 31.0789 23.7465 30.1325 25.6615 30.7382C25.7741 30.7382 25.7365 29.0726 24.197 28.1262Z" fill="#CE0037"/>
</svg>
