<svg width="33" height="26" viewBox="0 0 33 26" fill="none" xmlns="http://www.w3.org/2000/svg">
<path d="M20.6674 6.63725C17.5509 6.63725 15.1102 5.35018 15.1853 3.76027C15.2604 2.17037 17.7762 0.883301 20.8927 0.883301C24.0093 0.883301 26.45 2.17037 26.3749 3.76027C26.3373 5.35018 23.784 6.63725 20.6674 6.63725ZM24.197 12.1262C22.6575 11.1798 20.3671 11.1041 17.2505 14.8896C15.7861 16.7066 14.3592 19.2429 12.632 21.3249C10.9047 23.407 8.91466 25.0347 6.28624 25.0347C2.94439 25.0347 1.36732 22.4606 0.616346 19.2808C0.240857 17.6909 0.0906482 15.9117 0.0155504 14.2461C-0.0219985 12.5805 0.0155642 10.9906 0.053113 9.74135C0.0906619 9.05997 0.240862 8.00002 0.503704 7.31863C1.85546 3.72242 5.76053 1.71611 9.21503 2.8139C11.881 3.68456 13.6458 6.18299 13.5331 8.90854C13.4956 10.3092 13.383 11.7477 13.3079 12.959C13.2703 14.1704 13.2328 15.1167 13.3454 15.5331C13.4956 16.101 14.0588 16.101 14.3968 15.7981C14.547 15.6467 14.9976 15.1546 15.4857 14.5868C15.9739 14.019 16.5746 13.3376 17.0627 12.8076C18.039 11.7477 20.292 9.58992 24.3848 9.58992C28.8906 9.58992 32.3827 13.0347 32.2325 17.3123C32.0823 21.5899 29.3037 25.0347 23.8215 25.0347C19.2406 25.0347 16.7248 22.1199 18.0015 18.448C19.1279 15.0789 23.7465 14.1325 25.6615 14.7382C25.7741 14.7382 25.7365 13.0726 24.197 12.1262Z" fill="#CE0037"/>
</svg>
